<?xml version="1.0" encoding="UTF-8"?>
<svg id="Layer_2" data-name="Layer 2" xmlns="http://www.w3.org/2000/svg" xmlns:xlink="http://www.w3.org/1999/xlink" viewBox="0 0 173.04 183.95">
  <defs>
    <style>
      .cls-1 {
        fill: url(#radial-gradient);
      }

      .cls-2 {
        fill: url(#linear-gradient);
      }

      .cls-3 {
        fill: #efab22;
      }
    </style>
    <linearGradient id="linear-gradient" x1="14.37" y1="155.56" x2="124.74" y2="40.02" gradientUnits="userSpaceOnUse">
      <stop offset=".17" stop-color="#ee4036"/>
      <stop offset="1" stop-color="#842a0b"/>
    </linearGradient>
    <radialGradient id="radial-gradient" cx="66.95" cy="119.87" fx="66.95" fy="119.87" r="58.82" gradientUnits="userSpaceOnUse">
      <stop offset="0" stop-color="#27050b" stop-opacity=".4"/>
      <stop offset="1" stop-color="#27050b" stop-opacity=".9"/>
    </radialGradient>
  </defs>
  <g id="Layer_1-2" data-name="Layer 1">
    <path class="cls-3" d="M28.69,0h55.4C133.18,0,173.04,39.86,173.04,88.96v2.92c0,49.1-39.86,88.96-88.96,88.96H25.56c-13.91,0-25.2-11.29-25.2-25.2V28.32C.37,12.69,13.06,0,28.69,0Z"/>
    <path class="cls-2" d="M86.32,183.95H28.27c-15.61,0-28.27-12.66-28.27-28.27V39.59C0,23.97,12.66,11.32,28.27,11.32h58.05c47.67,0,86.32,38.64,86.32,86.32h0c0,47.67-38.64,86.32-86.32,86.32Z"/>
    <path class="cls-1" d="M92.47,112.57h-10.7c-5.74,0-10.39-4.65-10.39-10.39v-9.96c0-20.03-16.39-36.82-36.42-36.42S0,72.01,0,91.48v64.43C0,171.39,12.56,183.95,28.04,183.95h64.42c19.71,0,35.69-15.98,35.69-35.69h0c0-19.71-15.98-35.69-35.69-35.69ZM29.11,174.3c-2.62,2.62-9.04.46-14.34-4.83-5.29-5.29-7.46-11.71-4.83-14.34,2.62-2.62,9.04-.46,14.33,4.83s7.46,11.71,4.83,14.33ZM55.85,174.14c-2.62,2.62-14.99-5.49-27.62-18.12-12.63-12.63-20.74-25-18.12-27.62,2.62-2.62,14.99,5.49,27.62,18.12,12.63,12.63,20.74,25,18.12,27.62ZM79.08,170.65c-2.62,2.62-19.41-9.91-37.5-27.99-18.08-18.08-30.62-34.87-27.99-37.5,2.62-2.62,19.41,9.91,37.5,27.99,18.08,18.08,30.62,34.87,27.99,37.5ZM106.02,171.68c-2.62,2.62-25.67-16.17-51.48-41.98-25.81-25.81-44.6-48.86-41.98-51.48,2.62-2.62,25.67,16.17,51.48,41.98,25.81,25.81,44.6,48.86,41.98,51.48Z"/>
  </g>
</svg>