<?xml version="1.0" encoding="UTF-8"?>
<svg id="Layer_2" data-name="Layer 2" xmlns="http://www.w3.org/2000/svg" xmlns:xlink="http://www.w3.org/1999/xlink" viewBox="0 0 399.33 184.91">
  <defs>
    <style>
      .cls-1 {
        fill: url(#linear-gradient-4);
      }

      .cls-2 {
        fill: url(#linear-gradient-3);
      }

      .cls-3 {
        fill: url(#linear-gradient-2);
      }

      .cls-4 {
        fill: url(#linear-gradient);
      }

      .cls-5 {
        fill: #efab22;
      }

      .cls-6 {
        fill: #191917;
      }
    </style>
    <linearGradient id="linear-gradient" x1="14.37" y1="155.56" x2="124.74" y2="40.02" gradientUnits="userSpaceOnUse">
      <stop offset=".17" stop-color="#ee4036"/>
      <stop offset="1" stop-color="#842a0b"/>
    </linearGradient>
    <linearGradient id="linear-gradient-2" x1="301.19" y1="88.74" x2="307.25" y2="82.68" gradientUnits="userSpaceOnUse">
      <stop offset="0" stop-color="#842a0b"/>
      <stop offset=".82" stop-color="#ee4036"/>
    </linearGradient>
    <linearGradient id="linear-gradient-3" x1="302.01" y1="132.74" x2="308.07" y2="126.68" xlink:href="#linear-gradient-2"/>
    <linearGradient id="linear-gradient-4" x1="11.68" y1="175.46" x2="86.14" y2="96.47" gradientUnits="userSpaceOnUse">
      <stop offset="0" stop-color="#27050b" stop-opacity=".4"/>
      <stop offset="1" stop-color="#27050b" stop-opacity=".9"/>
    </linearGradient>
  </defs>
  <g id="Layer_1-2" data-name="Layer 1">
    <path class="cls-5" d="M28.69,0h55.4C133.18,0,173.04,39.86,173.04,88.96v2.92c0,49.1-39.86,88.96-88.96,88.96H25.56c-13.91,0-25.2-11.29-25.2-25.2V28.32C.37,12.69,13.06,0,28.69,0Z"/>
    <path class="cls-4" d="M86.32,183.95H28.27c-15.61,0-28.27-12.66-28.27-28.27V39.59C0,23.97,12.66,11.32,28.27,11.32h58.05c47.67,0,86.32,38.64,86.32,86.32h0c0,47.67-38.64,86.32-86.32,86.32Z"/>
    <g>
      <path class="cls-6" d="M239.64,101.92c.18,10.39-6.16,20.9-20.55,20.9h-16.15v-41.1h16.15c14.09,0,20.38,10.04,20.55,20.2ZM210.63,115.36h8.46c9.34,0,13.04-6.81,12.86-13.5-.18-6.4-3.93-12.8-12.86-12.8h-8.46v26.3Z"/>
      <path class="cls-6" d="M249.2,110.9c.47,3.58,3.58,6.17,8.63,6.17,2.64,0,6.11-1,7.75-2.7l4.58,4.52c-3.05,3.17-8.04,4.7-12.45,4.7-9.98,0-15.91-6.17-15.91-15.44s5.99-15.15,15.38-15.15,15.73,5.99,14.62,17.91h-22.61ZM264.94,104.97c-.47-3.76-3.41-5.64-7.52-5.64-3.88,0-7.05,1.88-8.1,5.64h15.62Z"/>
      <path class="cls-6" d="M299.81,119.12c-3.35,3.29-6.87,4.58-11.16,4.58-8.4,0-15.38-5.05-15.38-15.33s6.99-15.32,15.38-15.32c4.11,0,7.28,1.17,10.45,4.29l-4.52,4.76c-1.7-1.53-3.82-2.29-5.81-2.29-4.81,0-8.34,3.52-8.34,8.57,0,5.52,3.76,8.46,8.22,8.46,2.29,0,4.58-.65,6.34-2.41l4.81,4.7Z"/>
      <path class="cls-3" d="M308.45,85.71c0,5.58-8.46,5.58-8.46,0s8.46-5.58,8.46,0Z"/>
      <rect class="cls-6" x="300.64" y="93.76" width="7.16" height="29.06"/>
      <path class="cls-6" d="M319.07,81.78v16.03c1.7-3,6.46-4.64,9.51-4.64,8.46,0,14.74,5.17,14.74,15.15s-6.4,15.15-14.91,15.15c-3.52,0-7.11-1.17-9.34-4.64l-.47,3.99h-6.69v-41.04h7.16ZM319.54,108.32c0,5.23,3.88,8.51,8.4,8.51s8.22-3.46,8.22-8.51-3.64-8.46-8.22-8.46-8.4,3.41-8.4,8.46Z"/>
      <path class="cls-6" d="M352.36,110.9c.47,3.58,3.58,6.17,8.63,6.17,2.64,0,6.11-1,7.75-2.7l4.58,4.52c-3.05,3.17-8.04,4.7-12.45,4.7-9.98,0-15.91-6.17-15.91-15.44s5.99-15.15,15.38-15.15,15.73,5.99,14.62,17.91h-22.61ZM368.1,104.97c-.47-3.76-3.41-5.64-7.52-5.64-3.88,0-7.05,1.88-8.1,5.64h15.62Z"/>
      <path class="cls-6" d="M385.24,81.78v41.04h-7.1v-41.04h7.1Z"/>
      <path class="cls-6" d="M239.64,145.92c.18,10.39-6.16,20.9-20.55,20.9h-16.15v-41.1h16.15c14.09,0,20.38,10.04,20.55,20.2ZM210.63,159.36h8.46c9.34,0,13.04-6.81,12.86-13.5-.18-6.4-3.93-12.8-12.86-12.8h-8.46v26.3Z"/>
      <path class="cls-6" d="M249.2,154.9c.47,3.58,3.58,6.17,8.63,6.17,2.64,0,6.11-1,7.75-2.7l4.58,4.52c-3.05,3.17-8.04,4.7-12.45,4.7-9.98,0-15.91-6.17-15.91-15.44s5.99-15.15,15.38-15.15,15.73,5.99,14.62,17.91h-22.61ZM264.94,148.97c-.47-3.76-3.41-5.64-7.52-5.64-3.88,0-7.05,1.88-8.1,5.64h15.62Z"/>
      <path class="cls-6" d="M293.89,145.57c-2.05-1.94-4.4-2.58-7.16-2.58-3.4,0-5.28,1.06-5.28,2.88s1.7,2.94,5.4,3.17c5.46.35,12.39,1.58,12.39,9.28,0,5.11-4.17,9.51-12.45,9.51-4.58,0-9.16-.76-13.39-5.17l3.52-5.11c2.05,2.29,6.75,3.99,9.98,4.05,2.7.06,5.23-1.35,5.23-3.46,0-2-1.64-2.82-5.75-3.05-5.46-.41-11.98-2.41-11.98-8.98s6.93-9.04,12.21-9.04c4.52,0,7.93.88,11.27,3.82l-3.99,4.7Z"/>
      <path class="cls-2" d="M309.27,129.71c0,5.58-8.46,5.58-8.46,0s8.46-5.58,8.46,0Z"/>
      <rect class="cls-6" x="301.46" y="137.76" width="7.16" height="29.06"/>
      <path class="cls-6" d="M335.45,134.94l5.29,3.99-3.23,4.11c2.23,2.53,3.05,5.4,3.05,8.57,0,3.58-1.35,8.63-6.11,10.8,4.81,2.41,5.99,5.87,5.99,9.57,0,7.99-6.11,12.92-14.5,12.92s-14.68-5.11-14.68-12.92h7.11c0,3.76,3.46,6.22,7.57,6.22s7.34-2.23,7.34-6.22-3.76-5.81-7.34-5.81c-9.04,0-14.68-5.52-14.68-14.56s6.58-14.68,14.68-14.68c2.29,0,4.64.29,6.63,1.64l2.88-3.64ZM318.37,151.61c0,5.05,3.4,8.04,7.57,8.04s7.52-3.05,7.52-8.04-3.41-8.16-7.52-8.16-7.57,3.11-7.57,8.16Z"/>
      <path class="cls-6" d="M364.1,166.82v-15.15c0-4.4-2.41-7.75-6.99-7.75s-7.4,3.7-7.4,8.1v14.8h-7.1v-29.01h6.4l.47,3.93c2.94-2.88,5.87-4.35,9.51-4.35,6.81,0,12.27,5.11,12.27,14.21v15.21h-7.16Z"/>
      <path class="cls-6" d="M393.99,145.57c-2.05-1.94-4.4-2.58-7.16-2.58-3.41,0-5.29,1.06-5.29,2.88s1.7,2.94,5.4,3.17c5.46.35,12.39,1.58,12.39,9.28,0,5.11-4.17,9.51-12.45,9.51-4.58,0-9.16-.76-13.39-5.17l3.52-5.11c2.05,2.29,6.75,3.99,9.98,4.05,2.7.06,5.22-1.35,5.22-3.46,0-2-1.64-2.82-5.75-3.05-5.46-.41-11.98-2.41-11.98-8.98s6.93-9.04,12.21-9.04c4.52,0,7.93.88,11.27,3.82l-3.99,4.7Z"/>
    </g>
    <path class="cls-1" d="M92.47,112.57h-10.7c-5.74,0-10.39-4.65-10.39-10.39v-9.96c0-20.03-16.39-36.82-36.42-36.42C15.59,56.19,0,72.01,0,91.48v64.43C0,171.39,12.56,183.95,28.04,183.95h64.42c19.71,0,35.69-15.98,35.69-35.69h0c0-19.71-15.98-35.69-35.69-35.69ZM29.11,174.3c-2.62,2.62-9.04.46-14.34-4.83-5.29-5.29-7.46-11.71-4.83-14.34,2.62-2.62,9.04-.46,14.33,4.83s7.46,11.71,4.83,14.33ZM55.85,174.14c-2.62,2.62-14.99-5.49-27.62-18.12-12.63-12.63-20.74-25-18.12-27.62,2.62-2.62,14.99,5.49,27.62,18.12,12.63,12.63,20.74,25,18.12,27.62ZM79.08,170.65c-2.62,2.62-19.41-9.91-37.5-27.99-18.08-18.08-30.62-34.87-27.99-37.5,2.62-2.62,19.41,9.91,37.5,27.99,18.08,18.08,30.62,34.87,27.99,37.5ZM106.02,171.68c-2.62,2.62-25.67-16.17-51.48-41.98-25.81-25.81-44.6-48.86-41.98-51.48,2.62-2.62,25.67,16.17,51.48,41.98,25.81,25.81,44.6,48.86,41.98,51.48Z"/>
  </g>
</svg>